<?xml version="1.0" encoding="iso-8859-1"?>
<!-- Uploaded to: SVG Repo, www.svgrepo.com, Generator: SVG Repo Mixer Tools -->
<svg height="800px" width="800px" version="1.1" id="Layer_1" xmlns="http://www.w3.org/2000/svg" xmlns:xlink="http://www.w3.org/1999/xlink" 
	 viewBox="0 0 392.598 392.598" xml:space="preserve">
<path style="fill:#FFFFFF;" d="M333.705,196.299c0-22.626,15.838-41.697,37.042-46.675V87.887c0-6.012-4.848-10.925-10.925-10.925
	H32.711c-6.012,0-10.925,4.848-10.925,10.925v61.737c21.204,4.913,37.042,23.984,37.042,46.675s-15.838,41.697-37.042,46.675v61.737
	c0,6.012,4.848,10.925,10.925,10.925h327.111c6.012,0,10.925-4.848,10.925-10.925v-61.737
	C349.543,237.996,333.705,218.925,333.705,196.299z"/>
<path style="fill:#56ACE0;" d="M43.572,293.721v-35.943c22.044-11.766,37.042-34.909,37.042-61.608s-14.998-49.842-37.042-61.608
	V98.683h305.325v35.943c-22.044,11.766-37.042,34.909-37.042,61.608s14.998,49.842,37.042,61.608v35.943H43.572V293.721z"/>
<path style="fill:#FFC10D;" d="M218.699,144.582c0-15.709-12.671-28.444-28.251-28.574c-10.15-0.065-19.394,5.56-24.954,14.093l0,0
	c-3.943,6.012-12.8,6.012-16.873,0c-5.56-8.404-14.804-14.158-24.954-14.093c-15.58,0.129-28.251,12.929-28.251,28.574
	c0,19.846,35.297,57.6,61.608,80.679C183.337,201.859,218.699,163.847,218.699,144.582z"/>
<g>
	<path style="fill:#194F82;" d="M190.061,94.158c-12.347,0-24.048,4.461-33.099,12.347c-9.051-7.887-20.687-12.347-33.099-12.347
		c-27.798,0-50.489,22.626-50.489,50.489c0,38.917,68.719,96.97,76.477,103.499l0.517,0.453c3.685,3.103,9.18,3.103,12.929-0.065
		l0.517-0.453c12.735-10.731,76.412-66.198,76.412-103.37C240.549,116.784,217.923,94.158,190.061,94.158z M156.962,225.261
		c-26.246-23.079-61.608-60.832-61.608-80.679c0-15.709,12.671-28.444,28.251-28.574c10.149-0.065,19.394,5.56,24.954,14.093
		c3.943,6.012,12.8,6.012,16.873,0c5.56-8.404,14.804-14.158,24.954-14.093c15.58,0.129,28.251,12.994,28.251,28.574
		C218.699,163.911,183.273,201.859,156.962,225.261z"/>
	<path style="fill:#194F82;" d="M215.725,276.655H98.392c-6.012,0-10.925,4.848-10.925,10.925c0,6.012,4.848,10.925,10.925,10.925
		H215.79c6.012,0,10.925-4.849,10.925-10.925C226.65,281.503,221.737,276.655,215.725,276.655z"/>
	<path style="fill:#194F82;" d="M381.673,170.182c6.012,0,10.925-4.848,10.925-10.925V87.952c0-18.036-14.675-32.711-32.711-32.711
		H32.711C14.675,55.176,0,69.851,0,87.952v71.305c0,6.012,4.848,10.925,10.925,10.925c14.352,0,26.117,11.766,26.117,26.117
		c0,14.352-11.766,26.117-26.117,26.117C4.913,222.416,0,227.265,0,233.342v71.305c0,18.036,14.675,32.711,32.711,32.711h327.111
		c18.036,0,32.711-14.675,32.711-32.711v-71.305c0-6.012-4.848-10.925-10.925-10.925c-14.352,0-26.117-11.766-26.117-26.117
		C355.556,181.948,367.257,170.182,381.673,170.182z M370.683,242.909v61.737h0.065c0,6.012-4.848,10.925-10.925,10.925H32.711
		c-6.012,0-10.925-4.848-10.925-10.925v-61.737c21.204-4.978,37.042-23.984,37.042-46.675S42.99,154.537,21.786,149.56V87.822
		c0-6.012,4.848-10.925,10.925-10.925h327.111c6.012,0,10.925,4.848,10.925,10.925v61.737
		c-21.204,4.913-37.042,23.984-37.042,46.675C333.64,218.925,349.479,237.931,370.683,242.909z"/>
	<path style="fill:#194F82;" d="M288.129,95.968c-6.012,0-10.925,4.848-10.925,10.925v10.02c0,6.012,4.848,10.925,10.925,10.925
		c6.077,0,10.925-4.848,10.925-10.925v-10.02C299.055,100.881,294.141,95.968,288.129,95.968z"/>
	<path style="fill:#194F82;" d="M288.129,152.275c-6.012,0-10.925,4.848-10.925,10.925v10.02c0,6.012,4.848,10.925,10.925,10.925
		c6.077,0,10.925-4.848,10.925-10.925V163.2C299.055,157.123,294.141,152.275,288.129,152.275z"/>
	<path style="fill:#194F82;" d="M288.129,208.517c-6.012,0-10.925,4.848-10.925,10.925v10.02c0,6.012,4.848,10.925,10.925,10.925
		c6.077,0,10.925-4.848,10.925-10.925v-10.02C299.055,213.366,294.141,208.517,288.129,208.517z"/>
	<path style="fill:#194F82;" d="M288.129,264.824c-6.012,0-10.925,4.848-10.925,10.925v10.02c0,6.012,4.848,10.925,10.925,10.925
		c6.077,0,10.925-4.848,10.925-10.925v-10.02C299.055,269.738,294.141,264.824,288.129,264.824z"/>
</g>
</svg>